<?xml version="1.0" encoding="iso-8859-1"?>
<!-- Generator: Adobe Illustrator 19.0.0, SVG Export Plug-In . SVG Version: 6.00 Build 0)  -->
<svg version="1.1" id="Capa_1" xmlns="http://www.w3.org/2000/svg" xmlns:xlink="http://www.w3.org/1999/xlink" x="0px" y="0px"
	 viewBox="0 0 512.001 512.001" style="enable-background:new 0 0 512.001 512.001;" xml:space="preserve">
<path style="fill:#50555A;" d="M367.272,55.839h-71.11l4.314-31c0.4-2.873,2.856-5.011,5.757-5.011H357.2
	c2.9,0,5.357,2.138,5.757,5.011L367.272,55.839z"/>
<polygon style="fill:#A0EBFF;" points="445.836,159.544 210.499,159.544 228.263,54.873 428.073,54.873 "/>
<g>
	<ellipse style="fill:#FFB69E;" cx="376.748" cy="79.954" rx="18.317" ry="20.303"/>
	<path style="fill:#FFB69E;" d="M421.311,129.798c-0.057-12.72-9.44-23.067-20.915-23.067c-15.811,0-31.636,0-47.446,0
		c-11.475,0-20.858,10.348-20.914,23.067l-0.076,18.475h89.429L421.311,129.798z"/>
</g>
<path style="fill:#64AFFF;" d="M421.311,129.798c-0.057-12.72-9.44-23.068-20.915-23.068h-12.712
	c-0.155,5.982-5.27,11.018-11.28,11.018c-6.033,0-11.126-5.015-11.28-11.018H352.95c-11.475,0-20.858,10.348-20.914,23.067
	l-0.076,18.475h89.429L421.311,129.798z"/>
<path style="fill:#373C41;" d="M342.85,92.459h-29.697c-2.918,0-5.284-2.366-5.284-5.284v-6.203c0-2.918,2.366-5.284,5.284-5.284
	h29.698c2.918,0,5.284,2.366,5.284,5.284v6.203C348.134,90.094,345.768,92.459,342.85,92.459z"/>
<g style="opacity:0.38;">
	<polygon style="fill:#FFFFFF;" points="312.606,67.538 290.105,67.538 246.287,148.311 268.788,148.311 	"/>
</g>
<g style="opacity:0.36;">
	<polygon style="fill:#FFFFFF;" points="337.476,67.538 324.449,67.538 280.631,148.311 293.658,148.311 	"/>
</g>
<path style="fill:#373C41;" d="M210.683,324.521c-5.727,0-10.37-4.643-10.37-10.37v-83.892c0-15.859,12.856-28.714,28.714-28.714
	s28.714,12.855,28.714,28.714v83.892c0,5.727-4.643,10.37-10.37,10.37H210.683z"/>
<path style="fill:#272A2E;" d="M408.892,324.521c-5.727,0-10.37-4.643-10.37-10.37v-86.183c0-14.594,12.855-26.423,28.714-26.423
	c15.859,0,28.714,11.83,28.714,26.423v86.183c0,5.727-4.643,10.37-10.37,10.37H408.892z"/>
<g>
	<rect x="210.774" y="280.692" style="fill:#50555A;" width="11.629" height="43.827"/>
	<rect x="235.644" y="280.692" style="fill:#50555A;" width="11.629" height="43.827"/>
	<rect x="408.986" y="280.692" style="fill:#50555A;" width="11.629" height="43.827"/>
	<rect x="433.857" y="280.692" style="fill:#50555A;" width="11.629" height="43.827"/>
</g>
<path style="fill:#FAC855;" d="M208.57,173.674c-2.428,0-4.85-0.958-6.652-2.858l-25.577-26.968
	c-3.483-3.673-3.33-9.474,0.343-12.958c3.674-3.484,9.475-3.33,12.959,0.343l25.577,26.968c3.483,3.673,3.33,9.474-0.343,12.958
	C213.103,172.84,210.834,173.674,208.57,173.674z"/>
<path style="fill:#FFDC64;" d="M155.334,149.305h29.114c6.258,0,11.332-5.073,11.332-11.332V124.67
	c0-6.258-5.073-11.332-11.332-11.332h-29.114c-6.258,0-11.332,5.073-11.332,11.332v13.303
	C144.002,144.233,149.076,149.305,155.334,149.305z"/>
<path style="fill:#FAC855;" d="M441.13,171.159c-3.673-3.483-3.827-9.285-0.344-12.958l25.576-26.968
	c3.483-3.673,9.285-3.827,12.958-0.343c3.673,3.483,3.827,9.285,0.344,12.958l-25.576,26.968
	C450.604,174.488,444.801,174.642,441.13,171.159z"/>
<path style="fill:#FFDC64;" d="M500.669,149.305h-29.114c-6.258,0-11.332-5.073-11.332-11.332V124.67
	c0-6.258,5.073-11.332,11.332-11.332h29.114c6.258,0,11.332,5.073,11.332,11.332v13.303
	C512.001,144.233,506.928,149.305,500.669,149.305z"/>
<path style="fill:#FAC855;" d="M460.023,168.027c1.356,7.275-4.23,14.01-11.638,14.01H207.877c-3.52,0-6.858-1.567-9.106-4.274
	c-2.249-2.708-3.178-6.275-2.532-9.736l21.358-114.498c1.046-5.605,5.937-9.668,11.638-9.668h197.792
	c5.702,0,10.593,4.064,11.638,9.668L460.023,168.027z M222.129,158.358h212.005l-16.941-90.82H239.07L222.129,158.358z"/>
<path style="fill:#696E73;" d="M376.913,118.231c-17.267,0-31.314,14.048-31.314,31.315c0,17.267,14.048,31.314,31.314,31.314
	c17.267,0,31.315-14.048,31.315-31.314C408.228,132.279,394.18,118.231,376.913,118.231z M376.913,170.901
	c-11.776,0-21.355-9.579-21.355-21.355c0-7.08,3.467-13.357,8.792-17.237c3.137-2.287,7.583-0.06,7.583,3.86
	c-0.221,3.836,0.654,6.228-1.284,8.973c-0.879,1.245-1.396,2.764-1.396,4.404c0,2.328,1.043,4.41,2.681,5.815v5.199h9.959v-5.198
	c1.639-1.405,2.682-3.486,2.682-5.815c0-1.641-0.517-3.159-1.397-4.405c-1.94-2.747-1.065-5.18-1.284-8.973
	c0-3.901,4.441-6.151,7.583-3.86c5.325,3.88,8.792,10.157,8.792,17.237C398.268,161.321,388.689,170.901,376.913,170.901z"/>
<path style="fill:#373C41;" d="M376.913,180.86c-17.267,0-31.315-14.048-31.315-31.314c0-17.267,14.048-31.314,31.315-31.314
	s31.314,14.048,31.314,31.314S394.18,180.86,376.913,180.86z M376.913,128.191c-11.776,0-21.355,9.579-21.355,21.355
	s9.58,21.355,21.355,21.355c11.776,0,21.355-9.579,21.355-21.355S388.689,128.191,376.913,128.191z"/>
<g style="opacity:0.22;">
	<path d="M257.74,299.378v-69.119c0-15.859-12.856-28.714-28.714-28.714s-28.714,12.856-28.714,28.714v58.46L257.74,299.378z"/>
	<path d="M455.951,299.378v-69.119c0-15.859-12.855-28.714-28.714-28.714c-15.859,0-28.714,12.856-28.714,28.714v58.46
		L455.951,299.378z"/>
</g>
<path style="fill:#FFDC64;" d="M480.784,257.421c0,12.853-10.419,23.273-23.273,23.273h-258.87
	c-12.792,0-23.162-10.37-23.162-23.162v-47.966c0-33.83,27.425-61.255,61.255-61.255h182.794c33.83,0,61.255,27.425,61.255,61.255
	v47.855H480.784z"/>
<path style="fill:#FFAA50;" d="M176.714,264.93c3.035,9.15,11.614,15.765,21.785,15.765h259.266c10.171,0,18.75-6.615,21.785-15.765
	H176.714z"/>
<path style="fill:#FAC855;" d="M370.802,264.93h-84.209c-6.511,0-11.789-5.278-11.789-11.789v-39.332
	c0-6.511,5.278-11.789,11.789-11.789h84.209c6.511,0,11.789,5.278,11.789,11.789v39.332
	C382.591,259.651,377.313,264.93,370.802,264.93z"/>
<g>
	<ellipse style="fill:#FFAA50;" cx="228.267" cy="221.759" rx="25.191" ry="25.201"/>
	<ellipse style="fill:#FFAA50;" cx="428.003" cy="221.759" rx="25.191" ry="25.201"/>
</g>
<g>
	<ellipse style="fill:#FAC855;" cx="228.267" cy="215.834" rx="25.191" ry="25.201"/>
	<ellipse style="fill:#FAC855;" cx="428.003" cy="215.834" rx="25.191" ry="25.201"/>
</g>
<path style="fill:#B9B9BE;" d="M353.176,269.105h-49.211c-3.041,0-5.507-2.466-5.507-5.507v-12.539c0-3.041,2.466-5.507,5.507-5.507
	h49.211c3.041,0,5.507,2.466,5.507,5.507v12.539C358.685,266.639,356.219,269.105,353.176,269.105z"/>
<path style="fill:#D2D2D7;" d="M353.468,245.551h-49.794c-2.881,0-5.216,2.335-5.216,5.216v5.921c0-2.881,2.336-5.216,5.216-5.216
	h49.794c2.881,0,5.216,2.335,5.216,5.216v-5.921C358.685,247.886,356.349,245.551,353.468,245.551z"/>
<g>
	<ellipse style="fill:#FAF58C;" cx="428.003" cy="215.834" rx="14.282" ry="14.29"/>
	<ellipse style="fill:#FAF58C;" cx="228.267" cy="215.834" rx="14.282" ry="14.29"/>
</g>
<g>
	<path style="fill:#FFAA50;" d="M363.477,212.764h-69.811c-4.066,0-7.362,3.296-7.362,7.362c0,4.066,3.296,7.362,7.362,7.362h69.812
		c4.066,0,7.362-3.296,7.362-7.362C370.839,216.06,367.542,212.764,363.477,212.764z"/>
	<path style="fill:#FFAA50;" d="M405.144,173.368c-5.771,8.012-15.043,12.761-24.917,12.761H270.989
		c-6.706,0-13.003-3.225-16.921-8.666l-20.996-29.152h190.121L405.144,173.368z"/>
</g>
<g>
	<path style="fill:#FA870A;" d="M194.503,260.778c3.208,0,5.809-2.6,5.809-5.808v-9.542c0-3.208-2.6-5.808-5.809-5.808h-19.024
		v18.056c0,1.053,0.077,2.087,0.215,3.103H194.503z"/>
	<path style="fill:#FA870A;" d="M462.174,239.618c-3.208,0-5.808,2.6-5.808,5.808v9.542c0,3.208,2.6,5.808,5.808,5.808h18.396
		c0.137-1.015,0.214-2.05,0.214-3.103v-18.056L462.174,239.618L462.174,239.618z"/>
</g>
<rect x="321.323" y="67.533" style="fill:#696E73;" width="14.507" height="8.151"/>
<path style="fill:#5F6E9B;" d="M70.705,500.594c12.876,0,23.315-10.438,23.315-23.315V290.924c0-12.876-10.438-23.315-23.315-23.315
	S47.39,278.048,47.39,290.924V477.28C47.39,490.156,57.829,500.594,70.705,500.594z"/>
<path style="fill:#53618C;" d="M126.986,500.594c12.876,0,23.315-10.438,23.315-23.315V290.924
	c0-12.876-10.438-23.315-23.315-23.315s-23.315,10.438-23.315,23.315V477.28C103.671,490.156,114.11,500.594,126.986,500.594z"/>
<g>
	<circle style="fill:#BA6746;" cx="98.852" cy="51.675" r="40.268"/>
	<path style="fill:#BA6746;" d="M307.235,84.401c-2.646-10.393-13.215-16.675-23.608-14.025L150.291,104.33
		c-109.825,0.008-37.139,0.002-103.595,0.004c-25.62,0-46.567,20.522-46.695,45.747c0,0.032,0,0.064,0,0.097v142.736
		c0,10.73,8.698,19.429,19.429,19.429c10.73,0,19.429-8.699,19.429-19.429V150.243c0.041-3.695,3.766-7.051,7.837-7.051h0.695
		v147.733h102.91V144.232c0,0,43.671-11.1,142.908-36.221C303.602,105.363,309.881,94.794,307.235,84.401z"/>
</g>
<path style="fill:#FF4619;" d="M194.191,93.151L150.29,104.33c-109.825,0.008-37.139,0.002-103.595,0.004
	c-25.62,0-46.567,20.522-46.695,45.747c0,0.032,0,0.064,0,0.097v37.062h38.858v-36.998c0.041-3.695,3.766-7.051,7.837-7.051h0.695
	v147.733H150.3V144.232c0,0,15.838-4.026,50.09-12.709L194.191,93.151z"/>
<g>
</g>
<g>
</g>
<g>
</g>
<g>
</g>
<g>
</g>
<g>
</g>
<g>
</g>
<g>
</g>
<g>
</g>
<g>
</g>
<g>
</g>
<g>
</g>
<g>
</g>
<g>
</g>
<g>
</g>
</svg>
